<svg width="41" height="26" viewBox="0 0 41 26" fill="none" xmlns="http://www.w3.org/2000/svg">
<path d="M24.9023 26L28.8923 21.98H40.8923V26H24.9023Z" fill="#403F45"/>
<path d="M19.05 7.38C18.39 5.91 17.55 4.65 16.44 3.54C15.36 2.46 14.07 1.59 12.63 0.96C11.16 0.329999 9.63 0 7.98 0H0L3.99 4.02H7.98C9.06 4.02 10.11 4.23 11.07 4.62C12.03 5.04 12.9 5.64 13.62 6.36C14.37 7.11 14.94 7.95 15.36 8.91C15.78 9.9 15.99 10.92 15.99 12C15.99 13.08 15.78 14.1 15.36 15.09C14.94 16.05 14.37 16.89 13.65 17.64C12.93 18.39 12.06 18.96 11.1 19.38C10.14 19.77 9.09 19.98 7.98 19.98H3.99L0 24H7.98C9.63 24 11.19 23.67 12.63 23.04C14.1 22.41 15.39 21.54 16.47 20.46C17.55 19.35 18.39 18.09 19.05 16.62C19.68 15.18 19.98 13.65 19.98 12C19.98 10.35 19.68 8.82 19.05 7.38Z" fill="#F4DD08"/>
<path d="M24.9023 0V18.57L28.8923 14.55V0H24.9023Z" fill="#F4DD08"/>
</svg>
